<?xml version="1.0" encoding="UTF-8" standalone="no"?>
<!-- Created with Inkscape (http://www.inkscape.org/) -->

<svg
   xmlns:dc="http://purl.org/dc/elements/1.1/"
   xmlns:cc="http://creativecommons.org/ns#"
   xmlns:rdf="http://www.w3.org/1999/02/22-rdf-syntax-ns#"
   xmlns:svg="http://www.w3.org/2000/svg"
   xmlns="http://www.w3.org/2000/svg"
   xmlns:sodipodi="http://sodipodi.sourceforge.net/DTD/sodipodi-0.dtd"
   xmlns:inkscape="http://www.inkscape.org/namespaces/inkscape"
   width="210mm"
   height="297mm"
   viewBox="0 0 210 297"
   version="1.1"
   id="svg8"
   inkscape:version="0.92.2 (5c3e80d, 2017-08-06)"
   sodipodi:docname="CameraButtonStand.svg">
  <defs
     id="defs2" />
  <sodipodi:namedview
     id="base"
     pagecolor="#ffffff"
     bordercolor="#666666"
     borderopacity="1.0"
     inkscape:pageopacity="0.0"
     inkscape:pageshadow="2"
     inkscape:zoom="0.99936759"
     inkscape:cx="664.15943"
     inkscape:cy="658.01237"
     inkscape:document-units="mm"
     inkscape:current-layer="layer1"
     showgrid="true"
     showguides="true"
     inkscape:guide-bbox="true"
     inkscape:object-paths="false"
     inkscape:snap-intersection-paths="true"
     inkscape:snap-smooth-nodes="true"
     inkscape:snap-bbox="true"
     inkscape:snap-bbox-midpoints="true"
     inkscape:window-width="2560"
     inkscape:window-height="1311"
     inkscape:window-x="0"
     inkscape:window-y="55"
     inkscape:window-maximized="1">
    <inkscape:grid
       type="xygrid"
       id="grid4508"
       units="mm"
       spacingx="1"
       spacingy="1"
       empspacing="4" />
    <sodipodi:guide
       position="52,292"
       orientation="0,1"
       id="guide4543"
       inkscape:locked="false" />
    <sodipodi:guide
       position="28,244"
       orientation="0,1"
       id="guide4545"
       inkscape:locked="false" />
    <sodipodi:guide
       position="230,209"
       orientation="0,1"
       id="guide4547"
       inkscape:locked="false" />
    <sodipodi:guide
       position="222.06164,285.75001"
       orientation="1,0"
       id="guide4549"
       inkscape:locked="false" />
    <sodipodi:guide
       position="218.06164,264.75538"
       orientation="1,0"
       id="guide4553"
       inkscape:locked="false" />
    <sodipodi:guide
       position="178,217"
       orientation="1,0"
       id="guide4594"
       inkscape:locked="false" />
    <sodipodi:guide
       position="126,225"
       orientation="0,1"
       id="guide4626"
       inkscape:locked="false" />
    <sodipodi:guide
       position="202.06164,164.96909"
       orientation="1,0"
       id="guide4630"
       inkscape:locked="false" />
    <sodipodi:guide
       position="8,240"
       orientation="1,0"
       id="guide4724"
       inkscape:locked="false" />
    <sodipodi:guide
       position="32.8119,181.80122"
       orientation="0,1"
       id="guide4771"
       inkscape:locked="false" />
    <sodipodi:guide
       position="143,197.00001"
       orientation="0,1"
       id="guide4775"
       inkscape:locked="false" />
    <sodipodi:guide
       position="265,199"
       orientation="1,0"
       id="guide4796"
       inkscape:locked="false" />
    <sodipodi:guide
       position="295.99999,201.00002"
       orientation="1,0"
       id="guide4808"
       inkscape:locked="false" />
    <sodipodi:guide
       position="47.999999,240.00001"
       orientation="1,0"
       id="guide4554"
       inkscape:locked="false" />
  </sodipodi:namedview>
  <metadata
     id="metadata5">
    <rdf:RDF>
      <cc:Work
         rdf:about="">
        <dc:format>image/svg+xml</dc:format>
        <dc:type
           rdf:resource="http://purl.org/dc/dcmitype/StillImage" />
        <dc:title />
      </cc:Work>
    </rdf:RDF>
  </metadata>
  <g
     inkscape:label="Layer 1"
     inkscape:groupmode="layer"
     id="layer1">
    <g
       id="g887"
       transform="rotate(-90,113.5,117.5)"
       style="stroke-width:0.35277778;stroke-miterlimit:4;stroke-dasharray:none">
      <path
         sodipodi:nodetypes="ccccccccccccccccc"
         inkscape:connector-curvature="0"
         id="rect4504"
         d="M 10.000004,12.000004 10,8 h 53 v 4.000001 L 73,12 87.25,12.000001 122,12 V 7.9999908 L 130,8 V 91.999996 96 h -8 v -4 l -59,-9e-6 v 4 H 10 Z"
         style="opacity:1;fill:none;fill-opacity:1;fill-rule:nonzero;stroke:#000000;stroke-width:0.35277778;stroke-linecap:round;stroke-linejoin:round;stroke-miterlimit:4;stroke-dasharray:none;stroke-dashoffset:0;stroke-opacity:1" />
      <path
         sodipodi:nodetypes="ccccccccccccccc"
         inkscape:connector-curvature="0"
         id="rect4510"
         d="M 118.00024,32.000001 118,72 h 3.99976 L 122,32.000001 Z M 121.99976,72 l 4.8e-4,16 H 126 l -4.8e-4,-16 z M 118,72 h -4.00027 l 4.8e-4,16 h 4.00027 z"
         style="opacity:1;fill:none;fill-opacity:1;fill-rule:nonzero;stroke:#000000;stroke-width:0.35277778;stroke-linecap:round;stroke-linejoin:round;stroke-miterlimit:4;stroke-dasharray:none;stroke-dashoffset:0;stroke-opacity:1" />
      <rect
         transform="scale(1,-1)"
         style="opacity:1;fill:none;fill-opacity:1;fill-rule:nonzero;stroke:#000000;stroke-width:0.35277778;stroke-linecap:round;stroke-linejoin:round;stroke-miterlimit:4;stroke-dasharray:none;stroke-dashoffset:0;stroke-opacity:1"
         id="rect4516"
         width="4"
         height="16.000002"
         x="122"
         y="-32" />
      <rect
         transform="scale(1,-1)"
         style="opacity:1;fill:none;fill-opacity:1;fill-rule:nonzero;stroke:#000000;stroke-width:0.35277778;stroke-linecap:round;stroke-linejoin:round;stroke-miterlimit:4;stroke-dasharray:none;stroke-dashoffset:0;stroke-opacity:1"
         id="rect4520"
         width="4"
         height="16"
         x="114"
         y="-32" />
    </g>
    <g
       id="g4749"
       transform="rotate(90,164.65615,-64.656146)"
       style="stroke-width:0.35277778;stroke-miterlimit:4;stroke-dasharray:none">
      <path
         style="opacity:1;fill:none;fill-opacity:1;fill-rule:nonzero;stroke:#000000;stroke-width:1.33333337;stroke-linecap:round;stroke-linejoin:round;stroke-miterlimit:4;stroke-dasharray:none;stroke-dashoffset:0;stroke-opacity:1"
         d="m 944.88146,30.237146 v 15.117188 h -79.36964 v 151.181106 151.1811 h 79.36963 v 15.11718 h 56.69335 v -15.11718 l 15.1186,2.6e-4 v -15.11914 -60.47071 h 15.1171 v -75.59179 -75.58985 h -15.1171 V 60.472656 45.353516 l -15.1186,8.18e-4 V 30.237146 Z"
         transform="matrix(0.26458333,0,0,0.26458333,5.3122924,0)"
         id="rect4506"
         inkscape:connector-curvature="0"
         sodipodi:nodetypes="ccccccccccccccccccccc" />
      <rect
         y="45.999996"
         x="252.31236"
         height="12"
         width="12"
         id="rect4578"
         style="opacity:1;fill:none;fill-opacity:1;fill-rule:nonzero;stroke:#000000;stroke-width:0.35277778;stroke-linecap:round;stroke-linejoin:round;stroke-miterlimit:4;stroke-dasharray:none;stroke-dashoffset:0;stroke-opacity:1" />
    </g>
    <g
       id="g4759"
       transform="rotate(-90,202.24272,206.24278)"
       style="stroke-width:0.35277778;stroke-miterlimit:4;stroke-dasharray:none">
      <path
         style="opacity:1;fill:none;fill-opacity:1;fill-rule:nonzero;stroke:#000000;stroke-width:1.33333337;stroke-linecap:round;stroke-linejoin:round;stroke-miterlimit:4;stroke-dasharray:none;stroke-dashoffset:0;stroke-opacity:1"
         d="m 1058.2677,30.237146 v 15.117188 h -15.1181 v 151.181106 151.1811 h 15.1181 v 15.11718 h 56.6933 v -15.11718 l 79.3691,2.6e-4 v -15.11914 h 15.1191 V 272.125 h -15.1191 V 120.94531 h 15.1191 V 60.472656 h -15.1191 v -15.11914 l -79.3691,8.18e-4 V 30.237146 Z"
         transform="matrix(0.26458333,0,0,0.26458333,35.4854,0)"
         id="path4564"
         inkscape:connector-curvature="0"
         sodipodi:nodetypes="cccccccccccccccccccccc" />
      <g
         transform="translate(133.42376,-162.88447)"
         id="g4660"
         style="stroke-width:0.35277778;stroke-miterlimit:4;stroke-dasharray:none">
        <rect
           y="207.38446"
           x="198.56137"
           height="1.5"
           width="7"
           id="rect4596"
           style="opacity:1;fill:none;fill-opacity:1;fill-rule:nonzero;stroke:#000000;stroke-width:0.35277778;stroke-linecap:round;stroke-linejoin:round;stroke-miterlimit:4;stroke-dasharray:none;stroke-dashoffset:0;stroke-opacity:1" />
        <rect
           style="opacity:1;fill:none;fill-opacity:1;fill-rule:nonzero;stroke:#000000;stroke-width:0.35277778;stroke-linecap:round;stroke-linejoin:round;stroke-miterlimit:4;stroke-dasharray:none;stroke-dashoffset:0;stroke-opacity:1"
           id="rect4598"
           width="7"
           height="1.5"
           x="198.56137"
           y="220.88446" />
      </g>
    </g>
    <g
       id="g4645">
      <path
         sodipodi:nodetypes="ccccccccccccccccccccccccccccc"
         inkscape:connector-curvature="0"
         style="opacity:1;fill:none;fill-opacity:1;fill-rule:nonzero;stroke:#000000;stroke-width:0.35277778;stroke-linecap:round;stroke-linejoin:round;stroke-miterlimit:4;stroke-dasharray:none;stroke-dashoffset:0;stroke-opacity:1"
         d="m 100.06195,94.000002 h -4.00027 l -2.7e-4,-16 h 4.00027 l -4e-5,-4.000003 h -4 L 96.06164,15 H 100 V 8 5 h 4.06164 l 71.06164,61 V 77.999999 114 v 36 12 l -71.06164,61 H 100 v -3 -7 h -3.93836 v -59 h 4 l 4e-5,-4 h -4.00027 l 2.7e-4,-16 h 4.00027 v -20 z"
         id="path4562" />
      <path
         id="path4570"
         d="m 148.248,114 a 8.5000038,8.5000038 0 0 1 8.50001,-8.5 8.5000038,8.5000038 0 0 1 8.5,8.5 8.5000038,8.5000038 0 0 1 -8.5,8.5 8.5000038,8.5000038 0 0 1 -8.50001,-8.5 z"
         style="opacity:1;fill:none;fill-opacity:1;fill-rule:nonzero;stroke:#000000;stroke-width:0.35277778;stroke-linecap:round;stroke-linejoin:round;stroke-miterlimit:4;stroke-dasharray:none;stroke-dashoffset:0;stroke-opacity:1"
         inkscape:connector-curvature="0" />
      <path
         inkscape:connector-curvature="0"
         id="path4584"
         d="m 112.43682,114 a 3.6248183,3.6248183 0 0 1 3.62482,-3.62482 3.6248183,3.6248183 0 0 1 3.62482,3.62482 3.6248183,3.6248183 0 0 1 -3.62482,3.62482 A 3.6248183,3.6248183 0 0 1 112.43682,114 Z"
         style="opacity:1;fill:none;fill-opacity:1;fill-rule:nonzero;stroke:#000000;stroke-width:0.35277778;stroke-linecap:round;stroke-linejoin:round;stroke-miterlimit:4;stroke-dasharray:none;stroke-dashoffset:0;stroke-opacity:1" />
      <path
         inkscape:connector-curvature="0"
         id="path4765"
         d="m 175.06164,74.000009 -75,0"
         style="fill:none;fill-rule:evenodd;stroke:#0000ff;stroke-width:0.35277778;stroke-linecap:butt;stroke-linejoin:miter;stroke-miterlimit:4;stroke-dasharray:none;stroke-dashoffset:0.03439583;stroke-opacity:1" />
      <path
         id="rect4790"
         d="m 119.12328,74 h -15 v -4 h 15 z"
         style="opacity:1;fill:none;fill-opacity:1;fill-rule:nonzero;stroke:#000000;stroke-width:0.35277778;stroke-linecap:round;stroke-linejoin:round;stroke-miterlimit:4;stroke-dasharray:none;stroke-dashoffset:0.13;stroke-opacity:1"
         inkscape:connector-curvature="0" />
      <path
         id="rect4792"
         d="m 136.12328,70.000008 h -15 v -4 h 15 z"
         style="opacity:1;fill:none;fill-opacity:1;fill-rule:nonzero;stroke:#000000;stroke-width:0.35277778;stroke-linecap:round;stroke-linejoin:round;stroke-miterlimit:4;stroke-dasharray:none;stroke-dashoffset:0.13;stroke-opacity:1"
         inkscape:connector-curvature="0" />
      <path
         style="fill:none;fill-rule:evenodd;stroke:#0000ff;stroke-width:0.35277778;stroke-linecap:butt;stroke-linejoin:miter;stroke-miterlimit:4;stroke-dasharray:none;stroke-dashoffset:0.03439583;stroke-opacity:1"
         d="m 175.12328,154 h -75"
         id="path4821"
         inkscape:connector-curvature="0" />
      <path
         id="rect4823"
         d="m 119.12328,154.00001 h -15 v 4 h 15 z"
         style="opacity:1;fill:none;fill-opacity:1;fill-rule:nonzero;stroke:#000000;stroke-width:0.35277778;stroke-linecap:round;stroke-linejoin:round;stroke-miterlimit:4;stroke-dasharray:none;stroke-dashoffset:0.13;stroke-opacity:1"
         inkscape:connector-curvature="0" />
      <path
         id="rect4825"
         d="m 136.12328,158.00001 h -15 v 4 h 15 z"
         style="opacity:1;fill:none;fill-opacity:1;fill-rule:nonzero;stroke:#000000;stroke-width:0.35277778;stroke-linecap:round;stroke-linejoin:round;stroke-miterlimit:4;stroke-dasharray:none;stroke-dashoffset:0.13;stroke-opacity:1"
         inkscape:connector-curvature="0" />
      <path
         inkscape:connector-curvature="0"
         id="path161"
         d="m 102.36296,128.86508 c 0.15971,-0.15971 3.80212,0.55232 3.86695,0.75592 0.007,0.022 0.30273,0.32892 0.65718,0.68212 0.64447,0.64217 0.64447,0.64217 2.0819,0.95537 1.70979,0.37255 1.44551,0.24452 2.10198,1.01828 0.29757,0.35074 0.5502,0.64787 0.56142,0.6603 0.0259,0.0287 1.22175,-1.0762 1.22186,-1.12893 1.1e-4,-0.0628 -0.27936,-1.51131 -0.29455,-1.52649 -0.008,-0.008 -0.49528,-0.075 -1.08378,-0.14988 -0.74502,-0.0948 -1.08111,-0.1474 -1.10655,-0.17332 -0.15035,-0.15318 -0.89878,-1.19084 -0.89916,-1.24665 -7.4e-4,-0.12894 0.70272,-1.58413 0.79241,-1.63887 0.14884,-0.0908 1.23349,-0.49633 1.32762,-0.49633 0.33778,0 0.3307,0.1897 -0.0359,0.96304 -0.34723,0.7325 -0.26093,0.64395 -0.91174,0.93553 -0.29311,0.13132 -0.53662,0.24246 -0.54114,0.24698 -0.0409,0.0409 0.57557,0.76653 0.6635,0.78109 0.054,0.009 0.55747,0.0738 1.11878,0.14407 1.02223,0.12803 1.1044,0.14445 1.15017,0.22997 0.11021,0.20593 0.39482,2.15001 0.32457,2.21699 -0.0267,0.0255 -0.33562,0.313 -0.68634,0.63886 -0.7547,0.70118 -0.69349,0.59597 -0.48035,0.82575 0.0962,0.10367 0.19112,0.21316 0.21101,0.24332 0.027,0.0409 0.0617,0.48215 0.13666,1.73554 0.0981,1.641 0.10193,1.68277 0.16144,1.76715 0.0335,0.0475 0.33535,0.46123 0.67073,0.91933 0.33538,0.45809 0.6369,0.8739 0.67003,0.924 0.0331,0.0501 0.20069,0.53667 0.37233,1.08125 0.31208,0.99016 0.31208,0.99016 0.95399,2.23843 0.64191,1.24827 0.64191,1.24827 0.58807,2.10291 -0.0764,1.21272 0.52634,2.08091 1.64575,2.37054 0.59196,0.15316 0.70277,0.18945 0.74589,0.24427 0.0652,0.0829 0.0679,0.26569 0.005,0.33901 -0.0453,0.0528 -1.36199,0.68797 -1.49419,0.72074 -0.0992,0.0246 -0.12366,0.008 -0.80732,-0.56368 -0.6918,-0.57804 -0.63408,-0.54644 -0.78941,-0.43219 -0.29379,0.21606 0.638,0.96968 1.4056,1.13684 0.88612,0.19296 0.92357,0.20971 0.9239,0.41313 3.5e-4,0.21442 -0.0123,0.22058 -1.09034,0.52931 -1.08154,0.30973 -0.83767,0.35651 -1.93077,-0.3703 -0.89991,-0.59836 -0.89991,-0.59836 -2.31551,0.35271 -1.75955,1.18215 -1.44233,1.15492 -2.3005,0.19742 -0.50723,-0.56596 -0.4987,-0.35996 -0.0726,-1.75583 0.40646,-1.33161 0.62812,-1.00731 -1.88155,-2.75278 -1.37339,-0.95519 -1.73664,-0.97365 -3.78671,-0.19247 -2.07067,0.78904 -1.92683,0.79507 -1.9259,-0.0808 7.4e-4,-0.67563 -0.18079,-0.49912 1.48303,-1.44218 1.39251,-0.78927 1.39251,-0.78927 1.8274,-0.79919 0.43489,-0.01 0.43489,-0.01 0.41823,-0.0923 -0.009,-0.0453 -0.076,-0.40451 -0.14858,-0.79819 -0.20347,-1.10396 -0.19776,-1.10293 -1.93271,-0.35015 -1.41264,0.61292 -1.3976,0.60752 -1.51832,0.54509 -0.12432,-0.0643 -0.12962,-0.0965 -0.12962,-0.7869 0,-0.79192 -0.16253,-0.60734 1.22961,-1.39642 1.16455,-0.66007 1.16455,-0.66007 2.05999,-0.67926 0.89543,-0.0192 0.89543,-0.0192 1.14545,-0.4833 0.13751,-0.25527 0.25002,-0.47241 0.25002,-0.48254 0,-0.0101 -0.13541,-0.0112 -0.30091,-0.002 -0.30091,0.0161 -0.30091,0.0161 -1.26526,-0.6207 -0.5304,-0.35025 -0.97305,-0.63682 -0.98367,-0.63682 -0.0106,0 -0.41633,0.19326 -0.90158,0.42945 -1.28243,0.62423 -1.23411,0.63923 -1.23273,-0.38271 7.4e-4,-0.52209 0.009,-0.69937 0.0358,-0.7474 0.0421,-0.076 1.7941,-1.14734 1.87621,-1.14734 0.0303,0 0.34662,0.0586 0.70289,0.13014 0.35626,0.0716 0.6706,0.13014 0.69851,0.13014 0.0434,0 1.247,-0.62393 1.29745,-0.67257 0.01,-0.009 -0.0371,-0.0571 -0.10411,-0.1058 -0.19036,-0.13835 -0.1891,-0.13596 -0.92649,-1.77239 -0.3838,-0.85177 -0.71386,-1.56151 -0.73346,-1.57719 -0.0196,-0.0157 -0.17936,-0.0655 -0.35501,-0.1108 -1.86979,-0.48174 -2.40386,-0.63086 -2.44718,-0.68328 -0.0915,-0.11071 -0.0657,-1.23049 0.0305,-1.32674 z m 0.46809,0.95053 c 0.0255,0.0158 1.49078,-0.11955 1.47419,-0.13614 -0.0117,-0.0117 -1.4167,-0.29128 -1.46526,-0.29161 -0.0387,-2.6e-4 -0.0471,0.40413 -0.009,0.42775 z m 0.26921,6.92817 c 0.48375,-0.22801 0.60868,-0.2968 0.56611,-0.31171 -0.0215,-0.007 -0.18545,-0.0321 -0.36439,-0.0545 -0.17894,-0.0225 -0.36342,-0.0471 -0.40995,-0.0548 -0.0846,-0.0139 -0.0846,-0.0139 -0.0846,0.27257 0,0.2865 0,0.2865 0.29282,0.14848 z m -0.0102,4.07717 c 0.67849,-0.67281 0.84848,-0.85194 0.75762,-0.79834 -0.0506,0.0299 -0.30536,0.17471 -0.56611,0.3219 -0.4741,0.26762 -0.4741,0.26762 -0.4741,0.51214 0,0.24452 0,0.24452 0.28259,-0.0357 z m -0.22402,3.93467 c 0.61809,-0.19205 0.66805,-0.27335 0.14057,-0.22876 -0.19914,0.0168 -0.19914,0.0168 -0.19914,0.13189 0,0.10737 0.004,0.11385 0.0586,0.0969 z m 1.2949,-8.66475 c 0.19326,0.0235 0.36942,0.052 0.39146,0.0633 0.0379,0.0194 0.93598,-0.45388 0.93598,-0.49324 0,-0.0155 -1.12394,-0.23661 -1.19636,-0.23536 -0.0209,3.5e-4 -0.24611,0.12657 -0.50032,0.28046 -0.52013,0.31486 -0.56167,0.27156 0.36924,0.38488 z m -0.19236,8.01772 c 0.56245,-0.0187 0.56245,-0.0187 1.14507,-0.55694 0.58262,-0.53824 0.58262,-0.53824 0.4133,-0.54594 -0.14753,-0.007 -2.11958,1.02662 -2.12069,1.11122 -9e-5,0.006 0.25297,0.002 0.56232,-0.008 z m -0.16553,-3.38489 c 0.0465,-0.0196 0.38912,-0.1664 0.76133,-0.32625 0.79992,-0.34352 0.70644,-0.33836 1.26628,-0.0699 0.36114,0.1732 0.40922,0.20375 0.42378,0.26932 0.0138,0.0621 0.0841,0.11501 0.43856,0.33 0.23218,0.14083 0.5217,0.31858 0.64338,0.39501 0.12168,0.0764 0.44378,0.27562 0.71578,0.44264 0.27199,0.16702 0.6058,0.37307 0.7418,0.45788 0.46515,0.29008 0.46596,0.28998 0.18846,-0.0226 -0.11107,-0.12514 -0.23278,-0.26852 -0.27045,-0.31863 -0.0377,-0.0501 -0.16908,-0.20822 -0.29201,-0.35138 -0.12293,-0.14315 -0.31752,-0.37155 -0.43242,-0.50754 -0.1149,-0.136 -0.29405,-0.34683 -0.39812,-0.46851 -0.10407,-0.12169 -0.23567,-0.2798 -0.29244,-0.35138 -0.0568,-0.0716 -0.19705,-0.23784 -0.31171,-0.36947 -0.11467,-0.13163 -0.23714,-0.2768 -0.27216,-0.32261 -0.0637,-0.0833 -0.0637,-0.0833 -0.89671,-0.0645 -0.83304,0.0187 -0.83304,0.0187 -1.46549,0.65221 -0.67173,0.6728 -0.67878,0.68084 -0.54786,0.62572 z m 0.9539,-10.40959 c 0.83418,0.21438 0.77339,0.17197 1.01212,0.70624 0.90332,2.02159 1.26444,2.81146 1.30197,2.84773 0.24808,0.23981 0.41837,0.3032 0.35577,0.13244 -0.0353,-0.0963 -0.35581,-0.98163 -0.71226,-1.96744 -0.73414,-2.0303 -0.75545,-2.07281 -1.03914,-2.07281 -0.25464,0 -1.63985,0.14406 -1.61515,0.16797 0.005,0.005 0.31878,0.0887 0.69669,0.18587 z m 0.98193,6.6128 c 0.77106,0.50934 0.77106,0.50934 1.09969,0.49216 0.47439,-0.0248 0.44255,-0.011 0.56983,-0.24666 0.17284,-0.32001 0.17117,-2.22609 -0.002,-2.12617 -0.12836,0.0741 -1.84819,1.03213 -2.19739,1.22402 -0.1321,0.0726 -0.24044,0.13543 -0.24076,0.13965 -3.4e-4,0.004 0.3464,0.23686 0.77049,0.517 z m -0.12284,6.78662 c 0.17541,-0.061 0.1846,-0.0616 0.38392,-0.0234 0.31982,0.0612 0.29929,0.0841 0.22758,-0.25374 -0.0342,-0.16105 -0.0622,-0.30245 -0.0623,-0.31423 -9e-5,-0.0155 -0.71336,0.62223 -0.72701,0.64999 -0.001,0.002 0.079,-0.0242 0.1778,-0.0586 z m 0.93856,-1.41019 c 0.11541,0.59724 0.22007,1.11276 0.23256,1.14562 0.0146,0.0384 0.60194,0.46301 1.64594,1.18987 0.89278,0.62157 1.66324,1.16014 1.71215,1.19681 0.0973,0.073 0.0986,0.0495 0.0303,-0.57079 -0.0118,-0.10737 -0.0589,-0.55245 -0.10463,-0.98907 -0.10211,-0.97519 -0.0426,-0.852 -0.56536,-1.16964 -0.24105,-0.14645 -0.50855,-0.31155 -0.59444,-0.36688 -0.0859,-0.0553 -0.31429,-0.19577 -0.50755,-0.31209 -0.19326,-0.11632 -0.44766,-0.27211 -0.56533,-0.34621 -0.11766,-0.0741 -0.43391,-0.26839 -0.70276,-0.43177 -0.26885,-0.16339 -0.50638,-0.3111 -0.52786,-0.32825 -0.0927,-0.0741 -0.28591,-0.1715 -0.27474,-0.13859 0.007,0.0193 0.10633,0.52376 0.22175,1.12099 z m 0.80823,-9.60104 c 0.73267,2.02308 0.55796,1.75217 1.0698,1.65885 0.88739,-0.16178 1.15396,-0.2093 2.77739,-0.49514 0.2337,-0.0412 0.43061,-0.0805 0.43757,-0.0875 0.009,-0.009 -1.17316,-1.39321 -1.43227,-1.67645 -0.0159,-0.0173 -0.67054,-0.17235 -1.45483,-0.34446 -1.63943,-0.35977 -1.46852,-0.30062 -1.79855,-0.62244 -0.14152,-0.13801 -0.24887,-0.2275 -0.23856,-0.19887 0.0103,0.0286 0.29807,0.82332 0.63945,1.76598 z m -0.0909,6.86974 c 0.10055,0.11763 0.22936,0.27243 0.28623,0.34401 0.0569,0.0716 0.19129,0.23231 0.2987,0.35719 0.21203,0.2465 0.57248,0.67379 0.70868,0.84011 0.0469,0.0573 0.17012,0.20367 0.27385,0.32535 0.10373,0.12168 0.28253,0.33251 0.39734,0.46851 0.11481,0.13599 0.29348,0.34578 0.39704,0.46619 0.10357,0.12041 0.26196,0.31129 0.35199,0.42417 0.20595,0.2582 0.17638,0.25191 0.51379,0.1094 0.15706,-0.0663 0.3617,-0.15284 0.45474,-0.19224 0.22124,-0.0937 1.70068,-0.73389 1.95212,-0.84476 0.10736,-0.0473 0.42068,-0.18344 0.69625,-0.30245 0.60672,-0.26201 0.60219,-0.18712 0.0325,-0.53773 -0.15031,-0.0925 -0.34037,-0.21112 -0.42235,-0.26357 -0.082,-0.0524 -0.31623,-0.20006 -0.52056,-0.32803 -0.20433,-0.12798 -0.46521,-0.29329 -0.57974,-0.36736 -0.45775,-0.29607 -0.65879,-0.42383 -0.8329,-0.52932 -0.10021,-0.0607 -0.24927,-0.15354 -0.33125,-0.20629 -0.082,-0.0527 -0.31623,-0.20061 -0.52056,-0.32858 -0.20433,-0.12798 -0.46522,-0.29334 -0.57974,-0.36748 -0.19299,-0.12494 -0.61698,-0.39321 -0.98907,-0.62581 -0.0859,-0.0537 -0.23747,-0.15014 -0.33683,-0.21432 -0.45644,-0.29482 -0.62491,-0.39331 -0.64184,-0.37521 -0.0405,0.0433 -0.78166,1.44036 -0.79165,1.4922 -0.006,0.0307 -0.0392,0.10403 -0.0741,0.16301 -0.0727,0.12311 -0.0943,0.0817 0.25729,0.49301 z m 0.87783,-3.02786 c 0.0608,-0.0426 0.18089,-0.13002 0.26679,-0.19418 0.0859,-0.0641 0.19716,-0.14471 0.24726,-0.17901 0.0501,-0.0343 0.17895,-0.12729 0.28631,-0.20662 0.10737,-0.0793 0.23388,-0.17139 0.28115,-0.20456 0.0814,-0.0572 0.27262,-0.19691 0.47367,-0.34622 0.1016,-0.0754 0.54271,-0.3953 0.66372,-0.48125 0.043,-0.0305 0.17178,-0.12488 0.28631,-0.20972 0.11453,-0.0848 0.30601,-0.22147 0.42553,-0.30361 0.24936,-0.17139 0.24471,-0.18246 -0.0524,-0.12495 -0.11932,0.0231 -0.50978,0.0936 -0.86766,0.15657 -1.22413,0.21556 -1.822,0.32204 -1.96218,0.34947 -0.0771,0.0151 -0.14445,0.0274 -0.14966,0.0274 -0.005,0 -0.01,0.40369 -0.01,0.89709 0,0.89709 0,0.89709 0.11062,0.81956 z m 0.10526,0.63481 c 0.26026,0.16952 0.57879,0.37173 0.68209,0.433 0.11891,0.0705 0.25546,0.15706 0.62468,0.39584 0.14315,0.0926 0.35398,0.2252 0.4685,0.29472 0.11453,0.0695 0.30193,0.18707 0.41645,0.26124 0.43996,0.28495 0.65714,0.42302 0.83291,0.52951 0.10021,0.0607 0.24927,0.15354 0.33125,0.20629 0.082,0.0527 0.31623,0.2006 0.52056,0.32858 0.20433,0.12797 0.46521,0.29329 0.57974,0.36736 0.44452,0.28751 0.65712,0.42191 0.81988,0.51832 0.093,0.0551 0.18675,0.11429 0.20823,0.13151 0.0915,0.0733 0.28589,0.17167 0.27423,0.1387 -0.007,-0.0193 -0.10629,-0.33073 -0.22102,-0.69205 -0.20861,-0.65695 -0.20861,-0.65695 -0.89463,-1.60074 -0.37731,-0.51908 -0.705,-0.97326 -0.72819,-1.00929 -0.0343,-0.0532 -0.22633,-2.73937 -0.22633,-3.16522 0,-0.0423 -0.0784,-0.006 -0.22032,0.10101 -0.0723,0.0547 -0.21774,0.1627 -0.43039,0.31955 -0.1368,0.10091 -0.57371,0.41668 -0.67157,0.48539 -0.0815,0.0572 -0.27275,0.197 -0.47367,0.34622 -0.1009,0.0749 -0.54145,0.39438 -0.66372,0.48127 -0.043,0.0305 -0.17658,0.12808 -0.29696,0.21679 -0.12038,0.0887 -0.30556,0.22139 -0.41148,0.29484 -0.10594,0.0735 -0.21827,0.15615 -0.24963,0.18377 -0.0314,0.0276 -0.0863,0.07 -0.1221,0.0942 -0.35873,0.24223 -0.34513,0.21117 -0.14851,0.33923 z m 2.19038,12.07207 c 0.18536,0.20543 0.34804,0.37004 0.36151,0.3658 0.11449,-0.0361 4.22009,-2.83645 4.11668,-2.80795 -0.19227,0.053 -0.75148,0.14821 -0.79305,0.13501 -0.56076,-0.17797 0.16985,-0.69184 0.98127,-0.69017 0.0819,1.1e-4 0.40999,0.26038 1.56426,1.24047 0.19924,0.16917 0.25495,0.16586 0.61687,-0.0367 0.0325,-0.0182 -0.0367,-0.0455 -0.27645,-0.10895 -0.17593,-0.0465 -0.3444,-0.094 -0.37436,-0.10534 -0.0404,-0.0153 -1.23241,-1.54221 -1.34029,-1.71676 -0.0144,-0.0234 -1.45493,-0.14679 -1.47086,-0.12599 -0.003,0.004 -0.10351,0.19872 -0.22301,0.43244 -0.26402,0.51638 -0.34153,0.57606 -0.56259,0.43315 -0.15565,-0.10062 -0.14194,-0.17168 0.15133,-0.78458 0.34374,-0.71838 0.19343,-0.64967 1.27338,-0.58207 0.48899,0.0306 0.89515,0.0496 0.9026,0.0421 0.25263,-0.25263 0.0596,-1.15851 -0.46537,-2.18393 -0.41246,-0.80566 -0.56645,-1.0837 -0.59539,-1.07499 -0.0524,0.0157 -0.45733,0.18833 -1.1973,0.51024 -0.61974,0.2696 -0.73363,0.31877 -1.22332,0.52816 -1.46351,0.62577 -1.50963,0.64783 -1.50963,0.72169 0,0.47159 0.29285,2.7467 0.36397,2.82772 0.11097,0.12638 0.11551,0.10401 -0.28467,1.40201 -0.19862,0.6442 -0.3592,1.17889 -0.35686,1.18819 0.002,0.009 0.15592,0.185 0.34128,0.39042 z m 0.11198,-21.33708 c 0.11095,-0.0511 0.217,-0.0991 0.23567,-0.10679 0.0187,-0.008 0.0867,-0.11905 0.15128,-0.24755 0.0645,-0.1285 0.10734,-0.22949 0.0951,-0.22442 -0.0122,0.005 -0.11786,0.044 -0.23476,0.0865 -0.19854,0.0721 -0.38377,0.31187 -0.44763,0.57931 -7.4e-4,0.003 0.0894,-0.036 0.20032,-0.087 z m 4.32992,20.60439 c 0.84099,0.57477 0.69666,0.51827 1.05694,0.41373 0.29953,-0.0869 0.29953,-0.0869 0.0819,-0.14171 -0.29836,-0.0751 -0.26942,-0.0531 -0.83305,-0.63378 -0.50376,-0.51902 -0.50376,-0.51902 -0.75754,-0.33638 -0.31345,0.22557 -0.37189,0.13525 0.45172,0.69814 z"
         style="fill:#0000ff;stroke-width:0.0260282" />
      <circle
         r="14.5"
         cy="114.20837"
         cx="156.78731"
         id="path886"
         style="fill:none;fill-opacity:1;stroke:#0000f0;stroke-width:0.40000001;stroke-miterlimit:4;stroke-dasharray:none;stroke-opacity:1" />
    </g>
  </g>
</svg>
